<?xml version="1.0" encoding="utf-8"?>
<!-- Generator: Adobe Illustrator 15.0.0, SVG Export Plug-In . SVG Version: 6.00 Build 0)  -->
<!DOCTYPE svg PUBLIC "-//W3C//DTD SVG 1.1//EN" "http://www.w3.org/Graphics/SVG/1.1/DTD/svg11.dtd">
<svg version="1.1" id="Selected_Items" xmlns="http://www.w3.org/2000/svg" xmlns:xlink="http://www.w3.org/1999/xlink" x="0px"
	 y="0px" width="50px" height="80px" viewBox="0 0 50 80" enable-background="new 0 0 50 80"
	 xml:space="preserve">
<linearGradient id="grad" gradientUnits="userSpaceOnUse" x1="6.5854" y1="11.2119" x2="6.5854" y2="57.7869">
	<stop  offset="0" style="stop-color:#FFFFFF"/>
	<stop  offset="1" style="stop-color:#FFFFFF;stop-opacity:0"/>
</linearGradient>
<g>
<polygon fill-rule="evenodd" clip-rule="evenodd" fill="url(#grad)" points="10.186,56.649 2.986,56.649 2.986,12.5 10.186,19.7 "/>
    <animate  repeatCount="indefinite" attributeName="opacity" 
             begin="0s" dur="1.5s"
             keyTimes= "0; 0.1; 0.25; 0.5; 0.7; 1"
             values="0; 0; 1; 1; 0; 0"  />
</g>

<g>
	<g>
		<path fill-rule="evenodd" clip-rule="evenodd" fill="none" stroke="#ffffff" stroke-width="3" stroke-linecap="round" stroke-linejoin="round" stroke-miterlimit="3" d="
		M44.536,15.05c-3.1-3.767-5.783-6.517-8.05-8.25c-2.3-1.733-5.05-1.316-8.25,1.25l-6.75,5.2l-9.1-9.101
		C11.619,3.383,10.703,3,9.636,3c-1.167,0-2.133,0.383-2.9,1.149c-0.833,0.867-1.25,1.834-1.25,2.9c0,1.1,0.4,2.05,1.2,2.85
		L23.336,26.5l-7,1.899c-1.1,0.267-1.9,0.9-2.4,1.9c-0.6,0.967-0.767,1.983-0.5,3.05c0.333,1.101,0.967,1.934,1.9,2.5
		c0.966,0.566,2,0.684,3.1,0.351l17.8-2.051l7.75-7.75C47.453,22.666,47.636,18.883,44.536,15.05z"/>

	   	 <animateTransform attributeName="transform" attributeType="XML" type="translate" fill="freeze"  repeatCount="indefinite"
	    	 begin="0s" dur="1.5s" 
		 keyTimes= "0; 0.2;  0.6;  1"
	    	 values=" 0,40; 0,0; 0,0; 0,40" 
		 calcMode= "spline"
		 keySplines= "
		 0.42 0 0.58 1;
		 0.42 0 0.58 1;
		 0.42 0 0.58 1"  />

	</g>

   	 <animateTransform attributeName="transform" attributeType="XML" type="rotate" fill="freeze"  repeatCount="indefinite"
    	 begin="0s" dur="1.5s" 
	 keyTimes= "0;0.2; 0.6; 1"
    	 values=" -14  15 50; 0 15 50; 0 15 50; -14 15 50" 
	 calcMode= "spline"
	 keySplines= "
	 0.42 0 0.58 1;
	 0.42 0 0.58 1;
	 0.42 0 0.58 1"  />

</g>
</svg>
