<?xml version="1.0" encoding="utf-8"?>
<!-- Generator: Adobe Illustrator 15.0.0, SVG Export Plug-In . SVG Version: 6.00 Build 0)  -->
<!DOCTYPE svg PUBLIC "-//W3C//DTD SVG 1.1//EN" "http://www.w3.org/Graphics/SVG/1.1/DTD/svg11.dtd">
<svg version="1.1" id="logo" xmlns="http://www.w3.org/2000/svg" xmlns:xlink="http://www.w3.org/1999/xlink" x="0px" y="0px"
	 width="178px" height="48px" viewBox="0 0 178 48" enable-background="new 0 0 178 48" xml:space="preserve">
<g>
	<path fill-rule="evenodd" clip-rule="evenodd" fill="#272F32" d="M74.2,12.25c0-0.667,0.267-1.267,0.8-1.8
		c0.5-0.5,1.117-0.767,1.85-0.8c0.733,0.033,1.367,0.3,1.9,0.8c0.5,0.5,0.767,1.1,0.8,1.8c-0.033,0.767-0.3,1.417-0.8,1.95
		c-0.5,0.533-1.133,0.8-1.9,0.8c-0.733,0-1.35-0.267-1.85-0.8C74.467,13.667,74.2,13.017,74.2,12.25z M88.7,16.05
		c0.7,0.133,1.333,0.35,1.899,0.65c0.634,0.267,1.15,0.617,1.551,1.05c0.399,0.433,0.6,0.95,0.6,1.55c0,0.567-0.2,1.05-0.6,1.45
		c-0.334,0.4-0.801,0.617-1.4,0.65c-0.3,0-0.667-0.117-1.1-0.35c-0.467-0.233-0.984-0.466-1.55-0.7c-0.533-0.2-1.067-0.317-1.6-0.35
		c-0.433,0-0.8,0.1-1.1,0.3c-0.333,0.233-0.5,0.583-0.5,1.05c0.033,0.433,0.317,0.8,0.85,1.1c0.533,0.267,1.217,0.55,2.05,0.85
		c0.833,0.3,1.65,0.667,2.45,1.1c0.833,0.4,1.517,0.95,2.05,1.65c0.566,0.667,0.867,1.533,0.9,2.601
		c-0.033,1.066-0.334,2.033-0.9,2.899c-0.533,0.8-1.316,1.45-2.35,1.95c-1,0.5-2.184,0.75-3.55,0.75c-0.7,0-1.417-0.1-2.15-0.3
		c-0.8-0.167-1.533-0.417-2.2-0.75c-0.667-0.3-1.216-0.684-1.65-1.15c-0.433-0.434-0.65-0.916-0.65-1.45
		c0-0.267,0.083-0.566,0.25-0.899c0.167-0.334,0.383-0.617,0.65-0.851c0.3-0.233,0.684-0.366,1.15-0.399
		c0.6,0.033,1.133,0.184,1.6,0.45c0.467,0.233,0.95,0.483,1.45,0.75s1.117,0.416,1.85,0.449c0.733,0,1.233-0.116,1.5-0.35
		c0.267-0.233,0.4-0.583,0.4-1.05c-0.033-0.4-0.317-0.75-0.85-1.05c-0.567-0.301-1.25-0.601-2.05-0.9
		c-0.833-0.267-1.65-0.616-2.45-1.05s-1.483-0.983-2.05-1.65c-0.534-0.667-0.817-1.55-0.85-2.65c0-1.1,0.283-2.066,0.85-2.9
		c0.533-0.833,1.283-1.483,2.25-1.95c0.966-0.466,2.083-0.7,3.35-0.7C87.4,15.85,88.033,15.917,88.7,16.05z M102,15.85
		c1.7,0.033,3.184,0.467,4.45,1.3c1.267,0.867,2.267,2,3,3.4c0.733,1.4,1.1,2.9,1.1,4.5c0,1.7-0.35,3.233-1.05,4.601
		c-0.733,1.366-1.717,2.466-2.95,3.3c-1.3,0.833-2.816,1.267-4.55,1.3c-1.7-0.033-3.184-0.467-4.45-1.3
		c-1.3-0.834-2.283-1.934-2.95-3.3c-0.733-1.367-1.1-2.9-1.1-4.601c0-1.6,0.366-3.1,1.1-4.5c0.7-1.4,1.7-2.533,3-3.4
		C98.866,16.317,100.333,15.883,102,15.85z M104.15,20.95c-0.534-0.467-1.25-0.717-2.15-0.75c-0.833,0.033-1.533,0.283-2.1,0.75
		c-0.567,0.5-0.983,1.117-1.25,1.85c-0.267,0.733-0.4,1.483-0.4,2.25c0,0.8,0.134,1.566,0.4,2.3s0.683,1.334,1.25,1.801
		c0.566,0.466,1.267,0.716,2.1,0.75c0.866-0.034,1.583-0.284,2.15-0.75c0.566-0.467,0.983-1.067,1.25-1.801s0.399-1.5,0.399-2.3
		c0-0.767-0.133-1.517-0.399-2.25C105.134,22.067,104.717,21.45,104.15,20.95z M115,10.75c0.7,0,1.267,0.25,1.7,0.75
		c0.434,0.467,0.666,1.1,0.7,1.9v2.85h1.35c0.6-0.033,1.134,0.117,1.6,0.45c0.434,0.333,0.65,0.883,0.65,1.65
		c0,0.733-0.217,1.267-0.65,1.6c-0.466,0.333-1,0.5-1.6,0.5h-1.35V31.4c-0.034,0.8-0.267,1.433-0.7,1.899s-1,0.717-1.7,0.75
		c-0.7-0.033-1.267-0.283-1.7-0.75s-0.666-1.1-0.7-1.899V20.45h-1.05c-0.633-0.034-1.133-0.233-1.5-0.6
		c-0.366-0.367-0.55-0.867-0.55-1.5c0-0.6,0.184-1.1,0.55-1.5c0.4-0.4,0.9-0.6,1.5-0.6h1.05V13.4c0.034-0.8,0.267-1.433,0.7-1.9
		C113.733,11,114.3,10.75,115,10.75z M128.55,20.2c-0.833,0.033-1.533,0.283-2.1,0.75c-0.566,0.5-0.983,1.117-1.25,1.85
		c-0.267,0.733-0.4,1.483-0.4,2.25c0,0.8,0.134,1.566,0.4,2.3s0.684,1.334,1.25,1.801c0.566,0.466,1.267,0.716,2.1,0.75
		c0.867-0.034,1.584-0.284,2.15-0.75c0.566-0.467,0.983-1.067,1.25-1.801s0.399-1.5,0.399-2.3c0-0.767-0.133-1.517-0.399-2.25
		c-0.267-0.733-0.684-1.35-1.25-1.85C130.167,20.483,129.45,20.233,128.55,20.2z M124.15,17.15c1.267-0.833,2.733-1.267,4.399-1.3
		c1.7,0.033,3.184,0.467,4.45,1.3c1.3,0.867,2.3,2,3,3.4c0.733,1.4,1.1,2.9,1.1,4.5c0,1.7-0.35,3.233-1.05,4.601
		c-0.733,1.366-1.717,2.466-2.95,3.3c-1.3,0.833-2.816,1.267-4.55,1.3c-1.7-0.033-3.184-0.467-4.45-1.3
		c-1.267-0.834-2.25-1.934-2.949-3.3c-0.733-1.367-1.101-2.9-1.101-4.601c0-1.6,0.367-3.1,1.101-4.5
		C121.85,19.15,122.85,18.017,124.15,17.15z M156.5,16.8c0.434-0.5,1.017-0.75,1.75-0.75c0.7,0,1.267,0.25,1.7,0.75
		c0.434,0.467,0.649,1.1,0.649,1.9v12.7c0,0.8-0.216,1.433-0.649,1.899s-1,0.717-1.7,0.75c-0.733-0.033-1.316-0.283-1.75-0.75
		s-0.65-1.1-0.65-1.899V18.7C155.85,17.9,156.066,17.267,156.5,16.8z M144.4,20.9c-0.534,0.467-0.934,1.05-1.2,1.75
		c-0.267,0.733-0.4,1.483-0.4,2.25c0,0.8,0.134,1.583,0.4,2.35c0.233,0.733,0.633,1.35,1.2,1.85c0.566,0.5,1.283,0.767,2.149,0.801
		c0.8-0.034,1.483-0.301,2.05-0.801c0.534-0.466,0.934-1.066,1.2-1.8c0.3-0.7,0.45-1.45,0.45-2.25c0-0.733-0.15-1.466-0.45-2.2
		c-0.267-0.767-0.666-1.4-1.2-1.9c-0.566-0.467-1.25-0.717-2.05-0.75C145.684,20.2,144.967,20.433,144.4,20.9z M144.75,16.4
		c0.8-0.367,1.65-0.55,2.55-0.55c1.3,0,2.434,0.267,3.4,0.8c0.934,0.567,1.717,1.283,2.35,2.15c0.667,0.9,1.15,1.917,1.45,3.05
		c0.3,1.1,0.45,2.25,0.45,3.45c0,1.134-0.167,2.233-0.5,3.3c-0.367,1.067-0.9,2.017-1.601,2.851c-0.666,0.866-1.483,1.55-2.449,2.05
		c-0.967,0.5-2.051,0.75-3.25,0.75c-0.767,0-1.517-0.15-2.25-0.45c-0.767-0.267-1.467-0.666-2.101-1.2V38.4
		c0,0.8-0.233,1.433-0.7,1.899c-0.433,0.5-1,0.75-1.699,0.75c-0.7,0-1.267-0.25-1.7-0.75c-0.434-0.467-0.667-1.1-0.7-1.899V18.7
		c0.033-0.8,0.267-1.434,0.7-1.9c0.434-0.5,1-0.75,1.7-0.75c0.666,0,1.199,0.167,1.6,0.5c0.366,0.367,0.634,0.867,0.8,1.5
		C143.267,17.317,143.917,16.767,144.75,16.4z M160.1,10.45c0.534,0.5,0.801,1.1,0.801,1.8c0,0.767-0.267,1.417-0.801,1.95
		c-0.5,0.533-1.133,0.8-1.899,0.8c-0.733,0-1.351-0.267-1.851-0.8c-0.533-0.534-0.8-1.184-0.8-1.95c0-0.667,0.267-1.267,0.8-1.8
		c0.5-0.5,1.117-0.767,1.851-0.8C158.934,9.683,159.566,9.95,160.1,10.45z M168.15,20.9c-0.601,0.5-1.051,1.117-1.351,1.85
		s-0.45,1.5-0.45,2.3s0.167,1.566,0.5,2.3c0.267,0.733,0.717,1.334,1.351,1.801c0.6,0.466,1.316,0.716,2.149,0.75
		c0.4-0.034,0.851-0.117,1.351-0.25c0.467-0.167,0.899-0.334,1.3-0.5c0.4-0.167,0.7-0.25,0.9-0.25c0.566,0,1.05,0.216,1.449,0.649
		c0.367,0.367,0.567,0.851,0.601,1.45c-0.033,0.6-0.25,1.1-0.65,1.5c-0.434,0.434-0.967,0.767-1.6,1c-0.667,0.267-1.3,0.467-1.9,0.6
		c-0.666,0.101-1.217,0.15-1.649,0.15c-1.733-0.033-3.233-0.467-4.5-1.3c-1.267-0.834-2.25-1.934-2.95-3.3
		c-0.733-1.367-1.101-2.9-1.101-4.601c0-1.6,0.367-3.1,1.101-4.5c0.7-1.4,1.7-2.533,3-3.4c1.267-0.833,2.75-1.267,4.45-1.3
		c0.466,0,1.033,0.05,1.699,0.15c0.634,0.1,1.267,0.267,1.9,0.5c0.634,0.2,1.15,0.5,1.55,0.9c0.4,0.4,0.617,0.883,0.65,1.45
		c0,0.333-0.066,0.667-0.2,1c-0.167,0.367-0.384,0.667-0.65,0.9c-0.267,0.267-0.583,0.4-0.949,0.4c-0.4-0.033-0.801-0.117-1.2-0.25
		c-0.367-0.133-0.767-0.283-1.2-0.45c-0.434-0.167-0.9-0.25-1.4-0.25C169.45,20.2,168.717,20.433,168.15,20.9z M65.7,12
		c0.633,0.333,1.167,0.717,1.6,1.15c2.367,1.767,2.367,4.45,0,8.05c-2.733,4-5.767,7.283-9.1,9.85c-0.2,0.4-0.4,0.8-0.6,1.2
		c-1.267,2.467-2.75,4.833-4.45,7.1c-0.833,1.134-1.733,2.25-2.7,3.351c-0.167,0.2-0.35,0.399-0.55,0.6
		c-3.1,3.434-7.433,3.967-13,1.601c-1.467-0.601-2.917-1.334-4.35-2.2c-1.6-1-3.183-2.117-4.75-3.351c-1-0.833-2-1.716-3-2.649
		c-0.533,1.166-1.183,2.05-1.95,2.649c-0.467,0.367-0.967,0.617-1.5,0.75c-0.033,0-0.067,0.017-0.1,0.051
		c-1.667,0.5-2.767,0.416-3.3-0.25c-0.934,0.267-1.867,0.366-2.8,0.3c-0.8-0.033-1.35-0.25-1.65-0.65
		c-0.1-0.066-0.183-0.133-0.25-0.2H13.2c-0.867,0.034-1.733-0.1-2.6-0.399c-0.133-0.033-0.267-0.101-0.4-0.2
		c-0.767-0.467-1.25-0.983-1.45-1.55c-1.6-0.2-2.967-0.584-4.1-1.15c-2.967-1.967-4.117-3.934-3.45-5.899
		c0.133-0.4,0.383-0.767,0.75-1.101c0.433-0.633,1.533-1,3.3-1.1c-0.067-0.2-0.1-0.4-0.1-0.601c-0.233-0.966,0.167-1.85,1.2-2.649
		c0.233-0.267,0.583-0.5,1.05-0.7c-0.133-0.7,0.167-1.4,0.9-2.1c0.3-0.3,0.883-0.633,1.75-1c0.9-0.4,1.784-0.7,2.65-0.9
		c-0.167-3.167,0.55-5.817,2.15-7.95c1.667-2.233,4.883-4.383,9.65-6.45c4.8-2.067,9.917-3.4,15.35-4
		c5.433-0.567,9.05-0.733,10.85-0.5c6.233,0.566,9.8,3.55,10.7,8.95c1.367,0.534,2.767,1.167,4.2,1.9L65.7,12z M76.9,16.05
		c0.7,0,1.267,0.25,1.7,0.75c0.4,0.467,0.617,1.1,0.65,1.9v12.7C79.217,32.2,79,32.833,78.6,33.3c-0.434,0.467-1,0.717-1.7,0.75
		c-0.733-0.033-1.316-0.283-1.75-0.75c-0.433-0.467-0.65-1.1-0.65-1.899V18.7c0-0.8,0.217-1.434,0.65-1.9
		C75.583,16.3,76.167,16.05,76.9,16.05z M66.05,15.8c-0.2-0.8-0.816-1.5-1.85-2.1c-4.667-2.367-9.217-3.717-13.65-4.05
		c-0.7,0.1-0.95,0.45-0.75,1.05c1.167,2.8,2.15,5.683,2.95,8.65s1.4,5.95,1.8,8.95c0.1,0.667,0.467,0.867,1.1,0.601
		c3.7-2.5,6.983-5.967,9.85-10.4C66.1,17.5,66.283,16.6,66.05,15.8z M47.35,10.65C47.117,10.217,46.733,10,46.2,10
		c-5.467,0.2-10.717,2.033-15.75,5.5c-0.667,0.4-1,1.017-1,1.85c-0.1,2.8,0.216,5.517,0.95,8.15c0.733,2.566,1.817,5.083,3.25,7.55
		c0.4,0.7,1,1.084,1.8,1.15c6.066,0.434,11.55-0.617,16.45-3.15c0.467-0.3,0.667-0.7,0.6-1.2c-0.333-3.333-0.933-6.6-1.8-9.8
		C49.833,16.817,48.717,13.683,47.35,10.65z M40.8,7.7c-2.2-0.833-4.216-1.25-6.05-1.25c-0.567,0-0.967,0.117-1.2,0.35
		c-1.966,1.267-3.433,2.6-4.4,4c-0.1,0.367,0,0.667,0.3,0.9l1.4,1c0.333,0.3,0.667,0.35,1,0.15c2.667-1.733,5.733-3.067,9.2-4
		C41.717,8.55,41.633,8.167,40.8,7.7z M27.6,21.85c-0.067-0.533-0.35-0.917-0.85-1.15c-0.567-0.233-1.1-0.4-1.6-0.5
		c-0.667-0.1-1,0.316-1,1.25c0.1,1.867,0.35,3.616,0.75,5.25c0.467,1.6,1.133,3.2,2,4.8c0.4,0.833,0.867,1.05,1.4,0.65
		c0.434-0.334,0.817-0.733,1.15-1.2c0.367-0.467,0.45-0.95,0.25-1.45c-0.534-1.3-0.983-2.55-1.35-3.75
		C28.05,24.517,27.8,23.217,27.6,21.85z M48.15,36.5c0.567-0.767,0.467-1.116-0.3-1.05c-3.467,0.866-6.817,1.217-10.05,1.05
		c-0.367,0.033-0.633,0.267-0.8,0.7l-0.7,1.5c-0.066,0.233-0.066,0.45,0,0.649c0.067,0.101,0.167,0.217,0.3,0.351
		c1.5,0.7,3.417,1.1,5.75,1.2c0.333,0.1,0.75,0.017,1.25-0.25c0.6-0.367,1.217-0.801,1.85-1.301
		C46.383,38.583,47.283,37.634,48.15,36.5z M11.1,23.25c-1.767,0.667-1.417,1.333,1.05,2c-4.133,0.8-5.4,1.816-3.8,3.05
		c1.6,1.2,0.983,1.851-1.85,1.95s-3.55,0.8-2.15,2.1c1.4,1.334,3.8,2,7.2,2c-1.033,0.667-1.183,1.217-0.45,1.65
		c1.333,0.434,2.733,0.316,4.2-0.35c-0.867,0.966-0.966,1.483-0.3,1.55c1.5,0.066,2.967-0.384,4.4-1.351
		c-0.733,1.334-0.367,1.784,1.1,1.351c1.433-0.533,2.5-2.217,3.2-5.05c0.7-2.867,0.45-3.5-0.75-1.9
		c-1.133,1.667-2.333,2.616-3.6,2.85c-1.267,0.301-2.25,0.351-2.95,0.15c-0.667-0.2-0.4-0.733,0.8-1.6
		c1.233-0.801,1.4-1.267,0.5-1.4c-0.9-0.167-1.633-0.45-2.2-0.85c-0.567-0.434-0.033-0.95,1.6-1.551
		c1.667-0.666,2.05-1.216,1.15-1.649c-0.967-0.467-1.517-1.017-1.65-1.65c-0.133-0.7,1.017-0.733,3.45-0.1
		c2.4,0.633,2.934,0.35,1.6-0.85c-1.367-1.233-2.917-2.067-4.65-2.5c-1.7-0.467-2.217-0.05-1.55,1.25
		C14.383,22.25,12.933,22.55,11.1,23.25z"/>
	<path fill-rule="evenodd" clip-rule="evenodd" fill="#FF4221" d="M11.1,23.25c1.833-0.7,3.283-1,4.35-0.9
		c-0.667-1.3-0.15-1.717,1.55-1.25c1.733,0.433,3.283,1.267,4.65,2.5c1.333,1.2,0.8,1.483-1.6,0.85c-2.433-0.633-3.583-0.6-3.45,0.1
		c0.133,0.634,0.683,1.184,1.65,1.65c0.9,0.434,0.517,0.983-1.15,1.649c-1.633,0.601-2.167,1.117-1.6,1.551
		c0.567,0.399,1.3,0.683,2.2,0.85c0.9,0.134,0.733,0.6-0.5,1.4c-1.2,0.866-1.467,1.399-0.8,1.6c0.7,0.2,1.684,0.15,2.95-0.15
		c1.267-0.233,2.467-1.183,3.6-2.85c1.2-1.6,1.45-0.967,0.75,1.9c-0.7,2.833-1.767,4.517-3.2,5.05
		c-1.467,0.434-1.833-0.017-1.1-1.351c-1.433,0.967-2.9,1.417-4.4,1.351c-0.667-0.066-0.567-0.584,0.3-1.55
		c-1.466,0.666-2.867,0.783-4.2,0.35c-0.733-0.434-0.583-0.983,0.45-1.65c-3.4,0-5.8-0.666-7.2-2c-1.4-1.3-0.684-2,2.15-2.1
		s3.45-0.75,1.85-1.95c-1.6-1.233-0.333-2.25,3.8-3.05C9.683,24.583,9.333,23.917,11.1,23.25z"/>
</g>
</svg>
